/* XPM */
static char * D:\1euro\images\CTz\bitcoin64_xpm[] = {
"64 64 404 2",
"  	c None",
". 	c #5A5A5A",
"+ 	c #595959",
"@ 	c #494949",
"# 	c #4C4C4C",
"$ 	c #484848",
"% 	c #454545",
"& 	c #464646",
"* 	c #5B5B5B",
"= 	c #5D5D5D",
"- 	c #5E5E5E",
"; 	c #3A3A3A",
"> 	c #343434",
", 	c #333333",
"' 	c #373737",
") 	c #3E3E3E",
"! 	c #434343",
"~ 	c #474747",
"{ 	c #414141",
"] 	c #3B3B3B",
"^ 	c #363636",
"/ 	c #323232",
"( 	c #353535",
"_ 	c #505050",
": 	c #616161",
"< 	c #3C3C3C",
"[ 	c #4E4E4E",
"} 	c #636363",
"| 	c #626262",
"1 	c #646464",
"2 	c #676767",
"3 	c #717171",
"4 	c #606060",
"5 	c #383838",
"6 	c #3D3D3D",
"7 	c #515151",
"8 	c #313131",
"9 	c #393939",
"0 	c #525252",
"a 	c #656565",
"b 	c #6E6E6E",
"c 	c #878787",
"d 	c #A4A4A4",
"e 	c #B3B3B3",
"f 	c #CACACA",
"g 	c #D2D2D2",
"h 	c #D0D0D0",
"i 	c #D1D1D1",
"j 	c #C8C8C8",
"k 	c #B2B2B2",
"l 	c #A1A1A1",
"m 	c #848484",
"n 	c #6D6D6D",
"o 	c #666666",
"p 	c #6C6C6C",
"q 	c #919191",
"r 	c #C0C0C0",
"s 	c #D4D4D4",
"t 	c #D7D7D7",
"u 	c #D9D9D9",
"v 	c #DADADA",
"w 	c #DBDBDB",
"x 	c #D8D8D8",
"y 	c #D6D6D6",
"z 	c #D3D3D3",
"A 	c #BABABA",
"B 	c #8F8F8F",
"C 	c #696969",
"D 	c #535353",
"E 	c #AAAAAA",
"F 	c #DDDDDD",
"G 	c #E0E0E0",
"H 	c #E3E3E3",
"I 	c #E5E5E5",
"J 	c #E8E8E8",
"K 	c #EAEAEA",
"L 	c #E9E9E9",
"M 	c #E7E7E7",
"N 	c #DFDFDF",
"O 	c #DCDCDC",
"P 	c #CFCFCF",
"Q 	c #6F6F6F",
"R 	c #404040",
"S 	c #4B4B4B",
"T 	c #6B6B6B",
"U 	c #6A6A6A",
"V 	c #ABABAB",
"W 	c #DEDEDE",
"X 	c #EDEDED",
"Y 	c #F1F1F1",
"Z 	c #F4F4F4",
"` 	c #F8F8F8",
" .	c #FAFAFA",
"..	c #FBFBFB",
"+.	c #F6F6F6",
"@.	c #EEEEEE",
"#.	c #E6E6E6",
"$.	c #E1E1E1",
"%.	c #D5D5D5",
"&.	c #A7A7A7",
"*.	c #686868",
"=.	c #555555",
"-.	c #3F3F3F",
";.	c #5C5C5C",
">.	c #8C8C8C",
",.	c #ECECEC",
"'.	c #F2F2F2",
").	c #F9F9F9",
"!.	c #FFFFFF",
"~.	c #BBBBBB",
"{.	c #BDBDBD",
"].	c #CBCBCB",
"^.	c #F7F7F7",
"/.	c #CDCDCD",
"(.	c #8A8A8A",
"_.	c #B5B5B5",
":.	c #FEFEFE",
"<.	c #A2A2A2",
"[.	c #7D7D7D",
"}.	c #838383",
"|.	c #8D8D8D",
"1.	c #AEAEAE",
"2.	c #B6B6B6",
"3.	c #BCBCBC",
"4.	c #ADADAD",
"5.	c #7C7C7C",
"6.	c #F3F3F3",
"7.	c #EBEBEB",
"8.	c #CECECE",
"9.	c #ACACAC",
"0.	c #565656",
"a.	c #707070",
"b.	c #FCFCFC",
"c.	c #777777",
"d.	c #949494",
"e.	c #F0F0F0",
"f.	c #E4E4E4",
"g.	c #9D9D9D",
"h.	c #C4C4C4",
"i.	c #C3C3C3",
"j.	c #424242",
"k.	c #7B7B7B",
"l.	c #737373",
"m.	c #BEBEBE",
"n.	c #7E7E7E",
"o.	c #C7C7C7",
"p.	c #F5F5F5",
"q.	c #FDFDFD",
"r.	c #727272",
"s.	c #B8B8B8",
"t.	c #EFEFEF",
"u.	c #747474",
"v.	c #4A4A4A",
"w.	c #C1C1C1",
"x.	c #7A7A7A",
"y.	c #B4B0B2",
"z.	c #9E999B",
"A.	c #A39FA0",
"B.	c #A6A1A2",
"C.	c #A6A2A4",
"D.	c #E2E2E2",
"E.	c #808080",
"F.	c #CCCCCC",
"G.	c #C9C9C9",
"H.	c #A3A3A3",
"I.	c #AFACAC",
"J.	c #AFADAE",
"K.	c #C7C4C5",
"L.	c #ADAAAA",
"M.	c #BCB9BA",
"N.	c #C1C0C0",
"O.	c #9A9A9A",
"P.	c #B4B4B4",
"Q.	c #9B9B9B",
"R.	c #E6E5E6",
"S.	c #D6D3D4",
"T.	c #C2C0C1",
"U.	c #BFBCBD",
"V.	c #CFCCCD",
"W.	c #BAB9B9",
"X.	c #AAA8A9",
"Y.	c #AEAAAB",
"Z.	c #9B9798",
"`.	c #BEBABB",
" +	c #B8B6B7",
".+	c #C9C6C7",
"++	c #D4D3D4",
"@+	c #575757",
"#+	c #E1E1E0",
"$+	c #E3E2E2",
"%+	c #C4C2C3",
"&+	c #9D9A9A",
"*+	c #C6C6C6",
"=+	c #A09C9D",
"-+	c #A6A2A3",
";+	c #9D999A",
">+	c #A09D9E",
",+	c #9C9798",
"'+	c #999597",
")+	c #A6A4A5",
"!+	c #9C9C9C",
"~+	c #DDDCDD",
"{+	c #A29FA0",
"]+	c #A19E9F",
"^+	c #9F9B9C",
"/+	c #CAC6C7",
"(+	c #9A9898",
"_+	c #CBCACA",
":+	c #DEDCDD",
"<+	c #C0BFC0",
"[+	c #A09B9D",
"}+	c #9A9697",
"|+	c #DEDDDD",
"1+	c #787878",
"2+	c #C7C7C6",
"3+	c #B3AFB0",
"4+	c #A8A4A5",
"5+	c #ACA8A9",
"6+	c #AEABAC",
"7+	c #B2AEB0",
"8+	c #C8C6C7",
"9+	c #D0CFD0",
"0+	c #969193",
"a+	c #8D898A",
"b+	c #B7B5B5",
"c+	c #4D4D4D",
"d+	c #C2C2C2",
"e+	c #CCCBCB",
"f+	c #C5C3C5",
"g+	c #AAA6A7",
"h+	c #B0ACAD",
"i+	c #928E90",
"j+	c #AAA5A6",
"k+	c #969293",
"l+	c #D1CFD0",
"m+	c #A19D9E",
"n+	c #A9A7A8",
"o+	c #F1F0F0",
"p+	c #757575",
"q+	c #CECDCD",
"r+	c #C9C7C8",
"s+	c #A9A6A7",
"t+	c #ABA7A8",
"u+	c #B1ADAE",
"v+	c #B0AFB0",
"w+	c #CDCBCB",
"x+	c #A7A3A4",
"y+	c #9C9899",
"z+	c #999697",
"A+	c #969394",
"B+	c #A7A4A5",
"C+	c #8E8E8E",
"D+	c #D9D8D8",
"E+	c #B7B5B6",
"F+	c #A6A3A4",
"G+	c #A8A5A6",
"H+	c #ACA9AA",
"I+	c #A29D9F",
"J+	c #D2D1D2",
"K+	c #C5C2C3",
"L+	c #A5A1A2",
"M+	c #B4B0B1",
"N+	c #979394",
"O+	c #A3A0A1",
"P+	c #B7B4B5",
"Q+	c #918C8E",
"R+	c #ADA9AA",
"S+	c #BFBEBF",
"T+	c #B7B7B7",
"U+	c #858585",
"V+	c #CECBCC",
"W+	c #C6C4C5",
"X+	c #C7C4C4",
"Y+	c #B5B3B4",
"Z+	c #E6E7E6",
"`+	c #C0BEBF",
" @	c #888888",
".@	c #BDBCBD",
"+@	c #DCDADB",
"@@	c #B5B2B3",
"#@	c #DAD8D9",
"$@	c #B6B4B4",
"%@	c #9F9A9C",
"&@	c #A29D9E",
"*@	c #999999",
"=@	c #828282",
"-@	c #989496",
";@	c #B2AEAF",
">@	c #EEEDED",
",@	c #D0CFCF",
"'@	c #C3C1C1",
")@	c #E4E3E3",
"!@	c #959595",
"~@	c #AFAFAF",
"{@	c #909090",
"]@	c #979797",
"^@	c #B9B9B9",
"/@	c #BFBFBF",
"(@	c #AFA6A6",
"_@	c #CDC8C8",
":@	c #E5E3E3",
"<@	c #ACA3A3",
"[@	c #978B8B",
"}@	c #E8E7E7",
"|@	c #ABA1A1",
"1@	c #AAA1A1",
"2@	c #A9A0A0",
"3@	c #A59B9B",
"4@	c #5F5F5F",
"5@	c #B1A8A8",
"6@	c #988B8B",
"7@	c #C5BFBF",
"8@	c #EAE9E9",
"9@	c #DEDADA",
"0@	c #D8D4D4",
"a@	c #A09696",
"b@	c #DBD8D8",
"c@	c #C3BDBD",
"d@	c #C6C1C1",
"e@	c #988C8C",
"f@	c #C1BBBB",
"g@	c #BFB8B8",
"h@	c #545454",
"i@	c #A69D9D",
"j@	c #C6C0C0",
"k@	c #B8B1B1",
"l@	c #998D8D",
"m@	c #E2E1E1",
"n@	c #B3ABAB",
"o@	c #DDDBDB",
"p@	c #C2BCBC",
"q@	c #E0DEDE",
"r@	c #C7C1C1",
"s@	c #C8C2C2",
"t@	c #CAC4C4",
"u@	c #E1DEDE",
"v@	c #C5C5C5",
"w@	c #D1CCCC",
"x@	c #BEB8B8",
"y@	c #DAD7D7",
"z@	c #ACA2A2",
"A@	c #A59A9A",
"B@	c #C5C0C0",
"C@	c #444444",
"D@	c #978C8C",
"E@	c #C1BCBC",
"F@	c #A49999",
"G@	c #4F4F4F",
"H@	c #A39999",
"I@	c #D3CFCF",
"J@	c #9B8F8F",
"K@	c #9E9393",
"L@	c #9F9F9F",
"M@	c #8B8B8B",
"N@	c #C9C3C3",
"O@	c #E9E8E8",
"P@	c #B3AAAA",
"Q@	c #A19696",
"R@	c #9B9090",
"S@	c #F3F2F2",
"T@	c #969696",
"U@	c #989898",
"V@	c #C4BEBE",
"W@	c #AEA5A5",
"X@	c #A89E9E",
"Y@	c #9C9191",
"Z@	c #C1BABA",
"`@	c #A49A9A",
" #	c #ABA2A2",
".#	c #ADA3A3",
"+#	c #929292",
"@#	c #7F7F7F",
"##	c #B1B1B1",
"$#	c #BFB9B9",
"%#	c #D6D2D2",
"&#	c #DFDCDC",
"*#	c #E3E1E1",
"=#	c #C0B9B9",
"-#	c #D9D6D6",
";#	c #767676",
">#	c #898989",
",#	c #E1DFDF",
"'#	c #9E9E9E",
")#	c #E6E4E4",
"!#	c #E4E2E2",
"~#	c #9D9191",
"{#	c #A99F9F",
"]#	c #A89F9F",
"^#	c #9A8E8E",
"/#	c #C0BBBB",
"(#	c #A8A8A8",
"_#	c #E7E6E6",
":#	c #B2AAAA",
"<#	c #E9E7E7",
"[#	c #D7D4D4",
"}#	c #A0A0A0",
"|#	c #A39898",
"1#	c #B6AEAE",
"2#	c #A69C9C",
"3#	c #D4D1D1",
"4#	c #585858",
"5#	c #818181",
"6#	c #797979",
"7#	c #939393",
"                                                                                                                                ",
"                                                    . + @ # $ % & @ # # * =                                                     ",
"                                            - # ; > , ' ) ! ~ $ @ % { ] ^ / ( ) _ :                                             ",
"                                        # ' / < [ - } | 1 : 2 3 3 2 4 } : : + ~ 5 / 6 7                                         ",
"                                    $ 8 9 0 a | b c d e f g h i i i i j k l m n : - ~ ( ( [                                     ",
"                                $ 8 ) * o p q r i h g s t u v w v v x y z h h h A B C | 7 ^ ( D                                 ",
"                            . ^ 9 + 2 3 E g h s u F G H I J J K L M M I H N O t z P P d Q | # , R 4                             ",
"                          @ 8 S T U V z i x W H J X Y Z ` `  ..... .` +.Z @.K #.$.O %.P i &.*.: 6 > =.                          ",
"                        -.^ ;.o >.h h u N #.,.'.)...!.!.Z x f ~.{.].v ^.!.!...+.Y K H F y /.].(.| # 8 #                         ",
"                      ] ) a C _.i t W M @.+...:.M <.[.}.|.1.2.3.3.A 4.|.m 5.&.,.:. .6.7.H O s 8.9.*.0., %                       ",
"                    ' { U a.].i v H 7.+.b.b.~.c.d.t e.L I f.f.I #.#.#.M e.).t g.}.h.!...Y J N t /.i.n = ( !                     ",
"                  ] j.U k.8.z F M e. .b.{.l.{.^.#.I f.f.H $.f.$.$.H H H M M #.K e.m.n.o.!.^.@.H v h j l.= > %                   ",
"                -.-.U k.i %.G L p.q.K r.s.` M #.#.M L J M #.7.f.I I f.M #.#.H f.I #.e.s.5.6...t.I w i ].u.= / v.                ",
"              $ ' 2 a./.s N 7.+.q.w.x.).K J H I #.K L K I y.z.A.B.C.f.J M J H f.H D.H I t.E.F.:.Y #.v h j p 0./ D               ",
"            . / = *.G.z N L ` :.<.H.Y #.f.G H H I L J J I.J.K.L.M.N.K L M J #.I D.D.H H H @.O.9.!.'.I w 8.i.o @ ( }             ",
"            ( # a P.h F J +.b.Q.r J $.H G N D.f.J J M R.S.T.X U.u V.I J M I J M L J #.I #.#.J 3.&.!.t.f.x F.E 4 ; %             ",
"          ~ ; p (.h v #.Z :.d m.H H $.D.G D.f.f.f.#.#.R.W.X.Y.Z.`. +.+++M f.J M 7.K 7.L J J J L ~.e q.@.$.s F.m ;./ @+          ",
"          , * *.8.y H Y b.h.l I H f.H f.H I H f.#+$+#.%+&+*+=+-+;+>+,+'+)+7.L K @.@.X t.@.L M #.J !+t ).K W h o.a % <           ",
"        $ -.*.&.h W 7. .,.n.M $.f.I M #.J f.M ~+{+]+^+/+(+_+:+/.<+[+}+u F.|+w X X e.'.Z Y Y 7.M f.X }. .6.#.u f l = , =.        ",
"        / - b z t I p.:.1+7.D.$.f.J J J M L I 2+3+4+5+6+7+%+W 8+9+}+0+e.v a+b+H '.@.e.6.'.6.t.K #.M X (.!.@.$.g F.T % 6         ",
"      c+< *.&.h N X ..d+_.H D.D.J ,.,.,.,.X 7.e+f+g+h+Y.A.M.i+j+,+Z.k+z D.l+m+n+o+X X @.e.'.Y X 7.#.I 2.s ^.#.u ].Q.= / *       ",
"      ' =.U h t I p.q.p+@.$.H I 7.,.@.@.Y Z p.q+r+s+Y.t+u+v+w+x+5+y+}+z+I D.A+B+].K ,.@.e.e.@.X K J L X c !.t.N g G.} < ~       ",
"    4 , 2 C+8.F 7...w.P.f.I I J 7.X @.Y '.p.@.D+E+F+G+H+I+J+K+L+M+N+I+O+P+Q+R+-+S+e.,.,.X X Y Y e.,.M f.T+s +.I t ].U+0 '       ",
"    $ -.1 A g D.Y !.5.@.I I $.L J 7.K e.,.J M K z+-+&+{+V+/.b+h+h+W+X+x Y+Z+{+R+`+X ,.@.t.'.e.'.+.6.X 7.Z  @!.7.F /.4.* , +     ",
"    ; 0 p P x #.^.,.d.#.#.f.#.M J K K J I #.D.$.W t L f.L .@+@s+@@#@L J $@%@,+&@M e.t.@.'.'.p.+.Z +.Y @.7.*@).t.$.g ].4 5 S     ",
"    > 4 =@h w K b.E %.D.H $.f.#.#.H M J $.D.$.N H D.M 7.7.G -@L+;@>@X t.@.,@'@)@Y t.@.@.Y 6.Y +.p.Z e.K K z {.p.I %.f x.~ 6     ",
"  : , *.Q.P W t.!.}.6.$.H G H H #.L M M H f.D.D.I J J ,.K ,.7.y K '.e.6.Y '.6.'.t.@.t.t.t.t.'.t.6.@.,.L J Z q b.J u f !@0 '     ",
"  =.9 1 ~@z D.Y !.(.#.D.$.I M 7.J L M 7.#.L K 7.@.t.,.7.7.J L 7.X Y '.Y Z '.p.Y t.e.t.e.t.X @.t.,.t.7.J L K {@!.,.O /.g.* > o   ",
"  v.{ o d+s H p.).!@#.H M #.K ,.X @.X e.e.X t.t.t.@.@.X 7.M M 7.7.e.Z '.+.p.'.@.t.X t.t.e.t.e.X L @.X M J H ]@!.@.W h A 0./ 0.  ",
"  ! & | P y I ` O ^@,.J K K X @.'.e.e.t.t.t.X @.Y e.Y ,.t.7.X @.X Y '.6.6.Y 6.,.K X K Y Z e.e.e.Y e.'.,.K L 1.@.e.N h /@+ > 4   ",
"  v.v.} h x #.).i d+L M 7.,.X e.Y t.t.e.,.@.t.(@_@e.e.'.:@<@[@[@(@}@e._@<@|@1@1@2@3@X Z ` +.p.^.+.p.6.@.X 7.{.D.Y $.g w.4@^ *   ",
"  & # U P x M ` o.d+J K K 7.,.X e.K ,.J 7.@.5@6@7@6.6.8@[@<@9@0@a@6@e.b@c@d@e@<@f@g@X +.). ...). .).Y X 7.,.d+%.Y $.z *+a ^ h@  ",
"  ~ S C P x M ` j d+I M L J 7.,.X J L J L [@i@e@j@'.Z k@l@^.6.).m@n@o@K X X e@p@@.,.q@r@s@t@s@u@).Z Y 7.L ,.h.y Y $.z v@a ^ 0.  ",
"  v.$ : P t #.).g 3.I f.M 7.,.@.,.J L 7.7.w@Z [@j@t.Y [@x@t.e.6.e.t.X ,.,.t.e@c@t.t.y@1@z@A@[@B@+.Y Y L K ,.A I Y G i w.4@> *   ",
"  C@! | 8.t f.+.G e #.#.#.X 7.@.e.,.K X @.^.+.e@j@'.6.D@E@t.@.t.e.L 7.J L ,.e@p@t.t.Z Z ,.e@F@p.Z Y ,.#.M L k t.e.W h m.0., :   ",
"  G@6 o {.z H Z q.|.f.H H K @.Y 6.Y Y Z ` ).` e@r@6.'.H@<@'.e.Y }@I@L J M L e@p@Y Y +.Y J@K@Z ^.Y Y ,.K L K L@!.X O P T+=.> @+  ",
"  h@' | ~@i G Y !.M@I H $.M e.e.p.+.` ^.+.).^.e@j@6.Z N@[@O@^.p.P@[@o@@.,.J e@p@@.'.Y Q@R@S@^.p.p.6.@.K K X T@!.7.v ].Q.@+> *.  ",
"  1 / a U@P F X !.(.@.G H J 7.'.p.Z +.+.` +.'.e@V@e.6.6.W@6@X@Y@[@Z@Y @.X @.e@p@,.e.f@[@`@ #.#x@+.p.e.K K Z T@ .M t G.+#[ 9     ",
"    ( * @#h v J ).##z D.#.L K Y Y '.6.Z e.Y t.$#%#,.@.Y Z &#7@s@*#Y e.X Y X =#-#,.X -#p@j@j@r@w@Z 6.X L K g v@6.H s G.;#{ C@    ",
"    -.v.T /.%.f.p.'.U@M I J 7.X t.e.'.e.e.X L 7.,.X e.e.Y '.Y p.,.t.,.K t.,.@.@.7.7.t.e.Z ^.p.6.'.Y K M L Q.b.X N h o.= ( G@    ",
"    [ 5 | P.i G @.!. @6.L L J K @.@.@.Y ,.X K M 7.7.6.@.Y Y X Y 7.M X J K 7.I @.K X e.Y p.p.p.'.t.t.,.,.+.+#q.J v ].&.=., =     ",
"      8 : >#F.v M  .8.3.L L f.I L M K ,.K K M L ,.t.Y @.Y Y @.t.K J 7.J K J L X ,.t.'.t.p.+.` Z Y ,.L K e D.'.H %.j =@~ <       ",
"      < @ 2 F.s D.Y !.U+e.I G D.G J 7.K ,.L 7.7.7.t.e.,.,#e.,.,#@.X X 7.X X ,.@.,.,.t.Y Z 6.Z '.,.K L ).C+!.7.F P h.= ( _       ",
"      =.( 1 '#/.w K ).h e $.N F N D.L L K K J t.e.Y t.*#e@@.q@D@t.,.e.@.@.@.K X K X e.@.e.'.t.X #.7.7.T+H '.f.y j !@D > -       ",
"        ( 0 p 8.s D.e.!.U+I F O W G L K ,.e.e.+.e.6.e.)#e@e.!#e@K *#,.e.t.@.e.t.Y t.'.X Y 7.L L I M Y ]@q.K F P G.} ] ~         ",
"        G@^ } L@/.v #.p.^.@#f.W G H K K 7.t.Y Z 6.6.Y !#e@Y m@e@l@~#[@q@,.@.X t.t.e.Y t.7.J #.I #.Y B q.t.D.%.o.*@D , ;.        ",
"          ( # o j i W ,. .z ]@#.f.L L 7.X @.Y 6.Z +.'.)#e@Y )#e@'.Z {#]#^#[@/#,.X ,.@.J 7.K #.M L (#H Z I v /.d+4@5 ~           ",
"          7 , | m /.y D.t.q.P.~.K f.I I L #.t.6.'.6.6.:@e@Z _#e@Z 6.:#n@L [@K 7.M f.H f.M #.#.7.v@*+` L W i f @#c+^ 4@          ",
"            R 6 } (#F.u H e.!.1.~.M D.G f.#.X @.p.p.6.<#e@6.:@e@[#6.l@j@[@8@7.7.f.f.H G $.M K *+3...7.G g j }#=./ 7             ",
"              > S o w.8.w I Y !.^@'##.G N I L K 7.X '.,#6@'.q@e@|#[@=#1#2#1#B@@.I I I H M Y (#*+..,.$.%.f ^@* 9 {               ",
"              h@8 =.C *+h w I t.q.w >##.N f.I I L I #.7.K ,.L K ,.K @.b@%#3#-#7.,.K K M Y C+H ` ,.$.y ].r } j.; -               ",
"                S , ;.r.].P v H @.)...C+P.@.H I H H I M #.K #.#.#.#.J J J L J ,.@.t. .^@T@:.Z K G t F.v@*.v.> +                 ",
"                  ~ > ;.a.o.P x D.L Z !.t (.s.'.H H H f.I I H D.N G D.D.$.#.J 7.).A B D.:.t.M F z ].w.*.v./ D                   ",
"                    % , * *.w.].%.F #.@.^.!.t |.g.h 6.L H H D.N G W N W H @.z L@+#G !.6.K H w g j ^@| @ / D                     ",
"                      ~ 8 0 1 &.F.h u $.M e.+.!.).{.+#d.*@E ##e ##4.V U@T@*@d+..q.Z ,.f.W y /.f l * { > h@                      ",
"                        [ 8 & - }.*+].z u N #.,.Y ^.q.!.!.t.#.v w #.e.!.!...Z t.L H W t P j d+@#=.5 ] .                         ",
"                          =.5 ' 4#} L@F.F.z x W D.#.L X t.Y 6.Z 6.'.e.@.,.J f.G w y i G.f O.- S / C@-                           ",
"                              ~ / -.+ C O.G.].8.g t v F N $.D.D.D.D.G W O x %.i /.f *+!@: G@' ' D                               ",
"                                4#R 8 { + 4 U+4.].F.F.8.h g g z z g g P /.].F.o.(#5#* G@' , v.4                                 ",
"                                    + R , 5 # @+- 6#!@'#A /@i.*+*+d+/@s.g.7#p+* 7 ! > ^ v.-                                     ",
"                                        ;.c+; , ^ { # =.h@h@;.: : * 0 0 0 $ < , > { h@4                                         ",
"                                              = G@! ; > , / , > , / , , ' 6 v.D :                                               ",
"                                                      *.4#} - + + 4@1 4#T                                                       ",
"                                                                                                                                "};
