/* XPM */
static char * D:\1euro\images\CTz\bitcoin16_xpm[] = {
"16 16 104 2",
"  	c None",
". 	c #3E3E3E",
"+ 	c #404040",
"@ 	c #3B3B3B",
"# 	c #535353",
"$ 	c #A0A0A0",
"% 	c #D6D6D6",
"& 	c #F3F3F3",
"* 	c #F2F2F2",
"= 	c #D5D5D5",
"- 	c #9B9B9B",
"; 	c #515151",
"> 	c #7E7E7E",
", 	c #EDEDED",
"' 	c #D3D3D3",
") 	c #CCCCCC",
"! 	c #CDCDCD",
"~ 	c #D7D7D7",
"{ 	c #EAEAEA",
"] 	c #777777",
"^ 	c #EEEEEE",
"/ 	c #C6C6C6",
"( 	c #E7E7E7",
"_ 	c #E8E8E8",
": 	c #E6E6E6",
"< 	c #E4E4E4",
"[ 	c #C8C8C8",
"} 	c #ECECEC",
"| 	c #545454",
"1 	c #C5C5C5",
"2 	c #E3E3E3",
"3 	c #E2E2E2",
"4 	c #C7C5C6",
"5 	c #D9D7D8",
"6 	c #EFEFEF",
"7 	c #4F4F4F",
"8 	c #9F9F9F",
"9 	c #B6B4B5",
"0 	c #B0ADAE",
"a 	c #D7D6D7",
"b 	c #EBEBEB",
"c 	c #D8D8D8",
"d 	c #939393",
"e 	c #D2D2D2",
"f 	c #E0E0E0",
"g 	c #A6A3A4",
"h 	c #B3AFB0",
"i 	c #A4A0A1",
"j 	c #B8B5B6",
"k 	c #F1F1F1",
"l 	c #D9D9D9",
"m 	c #CBCBCB",
"n 	c #373737",
"o 	c #F0F0F0",
"p 	c #D4D4D4",
"q 	c #E7E6E6",
"r 	c #C7C3C4",
"s 	c #E3E2E2",
"t 	c #C1BDBD",
"u 	c #DDDBDB",
"v 	c #F4F4F4",
"w 	c #3C3C3C",
"x 	c #D1D1D1",
"y 	c #B0A7A7",
"z 	c #DAD7D7",
"A 	c #E0DEDE",
"B 	c #D7D4D4",
"C 	c #C5C0C0",
"D 	c #C3BDBD",
"E 	c #DADADA",
"F 	c #E9E9E9",
"G 	c #DCDADA",
"H 	c #C3BEBE",
"I 	c #C4BEBE",
"J 	c #E4E3E3",
"K 	c #D9D6D6",
"L 	c #DBDBDB",
"M 	c #C9C9C9",
"N 	c #999999",
"O 	c #E9E8E8",
"P 	c #E1E0E0",
"Q 	c #E6E5E5",
"R 	c #DFDDDD",
"S 	c #8D8D8D",
"T 	c #505050",
"U 	c #C7C7C7",
"V 	c #E2E0E0",
"W 	c #C2BDBD",
"X 	c #4D4D4D",
"Y 	c #767676",
"Z 	c #D1CDCD",
"` 	c #988C8C",
" .	c #B9B2B2",
"..	c #6D6D6D",
"+.	c #747474",
"@.	c #C8C6C6",
"#.	c #B4AEAE",
"$.	c #C4BFBF",
"%.	c #4E4E4E",
"&.	c #919191",
"*.	c #CACACA",
"=.	c #8C8C8C",
"-.	c #4C4C4C",
";.	c #363636",
"            . + + @             ",
"        # $ % & * = - ;         ",
"      > , = ' ) ! ~ ~ { ]       ",
"    > ^ / ( _ : ( < : [ } ]     ",
"  | } 1 ( 2 3 4 5 { 6 ^ ) : 7   ",
"  8 = ( , 6 4 9 0 a } 6 b c d   ",
". e = 2 : f g h i j { k 6 l m n ",
"+ o p b ^ q 6 r s t u v o c ( w ",
"+ ^ x { { y z A B C q D , E : w ",
"@ x = F v B G A H I J K 6 L M n ",
"  N l : _ 3 , G O P Q R } E S   ",
"  T ( U F o k V W } } { ' 3 X   ",
"    Y b ) : } Z `  ._ ' ( ..    ",
"      +.: E c @.#.$.L 2 ..      ",
"        %.&.) F ( *.=.-.        ",
"            ;.@ @ n             "};
